<svg xmlns="http://www.w3.org/2000/svg" width="76.342" height="80.052" viewBox="0 0 76.342 80.052">
  <path id="Trazado_2" data-name="Trazado 2" d="M109.306,144.015c-.055-24.655,19.276-42.47,42.331-42.521,19.851-.048,33,12.408,33.04,26.657.019,8.485-5.735,12.341-11.66,12.355-7.526.018-10.417-4.779-12.033-11.019-2.745-9.759-7.561-16.311-14.607-16.3-8.162.018-12.951,7.235-12.923,18.441.043,18.892,10.317,32,26.33,31.958,9.446-.021,14.718-4.2,20.152-8.691,3.675-3.21,6.883-.495,5.295,4.632-3.022,9.291-14.84,21.965-36.612,22.015-25.455.059-39.265-18-39.313-37.531" transform="translate(-109.306 -101.494)" fill="#17100d"/>
</svg>
