<svg xmlns="http://www.w3.org/2000/svg" width="130.095" height="146.403" viewBox="0 0 130.095 146.403">
  <path id="Trazado_1" data-name="Trazado 1" d="M126.267,217.9c2.686,10.458,3.74,17.962,3.826,23.461.07,6.078-2.249,9.235-12.6,12.269L45.017,274.876c-7.545,2.211-10.762,1.629-12-2.581-3.084-10.531,11.287-6.356,4.189-30.574L20.334,184.163C13.24,159.946,3.395,171.216.307,160.687c-1.233-4.211,1.163-6.439,8.708-8.65l69.139-20.263c10.354-3.035,13.82-2.909,17.348,1.966a121.81,121.81,0,0,1,9.984,16.511c2.6,4.955,3.048,8.444.019,10.474-3.15,2.258-6.015,1.573-10.337-2.115-10.608-8.9-19.626-12.352-30.683-9.11l-7.545,2.211c-11.053,3.24-12.791,6.419-11.145,12.034l4.835,16.494c2.059,7.02,6.377,7.468,13.575,5.36l.352-.1c12.807-3.752,10.834-9.845,17.324-11.747,3.864-1.132,5.582.842,7.111,3.443l11.142,21.126c3.2,5.729,2.44,7.669-.986,9.626C90.41,212.6,83.474,193.48,68.21,197.953l-.351.1c-7.2,2.108-10.645,4.643-8.535,11.839l10.334,35.271c1.646,5.616,4.826,7.351,17.281,3.7L97.772,245.5c10.7-3.136,12.4-11.637,14.965-26.3,1.235-6.839,3.279-8.964,6.47-9.137,4.517-.182,5.643,2.348,7.06,7.839" transform="translate(0 -129.738)" fill="#17100d"/>
</svg>
