<svg xmlns="http://www.w3.org/2000/svg" width="48.523" height="47.977" viewBox="0 0 48.523 47.977">
  <path id="Trazado_6" data-name="Trazado 6" d="M392.663,50.359c-4.32,4.15-15.622,7.613-27.279,1.338-12.167-6.549-15.978-19.245-9.611-31.073a25.354,25.354,0,0,1,34.3-10.508c10.723,5.773,12.9,15.392,10.024,23.174a3.545,3.545,0,0,1-3.7,2.179c-10.624-.45-17.822-1.143-27.9-2.4,0,4.281,1.885,9.137,7.842,12.343,4.934,2.657,10.223,2.211,14.843.967,2.834-.78,3.751,1.8,1.481,3.979M371.683,20.63a23.854,23.854,0,0,0-2.167,5.857,130.041,130.041,0,0,0,14.131,1.68c1.814.1,3.534.365,4.143-2.6,1.2-5.5-1.029-10.321-5.408-11.361-4.03-1.073-8,1.4-10.7,6.422" transform="translate(-352.728 -7.156)" fill="#17100d"/>
</svg>
