<svg xmlns="http://www.w3.org/2000/svg" width="65.143" height="115.175" viewBox="0 0 65.143 115.175">
  <path id="Trazado_5" data-name="Trazado 5" d="M319.434,48.261c2.2,5.754,7.053,11.977,11.658,10.217l12.226-4.671c2.732-1.046,5.71-1.029,6.659,4.049s-1.452,6.986-4.528,7.995l-10.233,3.416L349.677,107.1c5.665,14.817,13.555,5.7,16.2,12.606,1.265,3.31-.907,4.964-5.079,6.558l-26.04,9.954c-4.459,1.705-7.433,1.687-8.642-1.477-2.31-6.043,5.928-6.059.98-19.007L312.242,76.9,308.3,78.237c-3.218,1.065-6.229,1.389-6.992-2.767-1.02-4.394,1.582-6.213,5.035-7.532l2.156-.824c-8.194-21.435-.563-37.707,14.256-43.371,10.5-4.015,20.567-.111,24.195,9.382,2.474,6.474-1.392,10.59-4.7,11.855-4.6,1.76-7.684-.692-10.1-3.558-2.833-3.534-6.389-6.791-10.129-5.361-3.452,1.32-5.173,5.438-2.59,12.2" transform="translate(-301.089 -22.176)" fill="#17100d"/>
</svg>
