<svg xmlns="http://www.w3.org/2000/svg" width="45.172" height="57.251" viewBox="0 0 45.172 57.251">
  <path id="Trazado_7" data-name="Trazado 7" d="M438.652,53.406c.8,4.889-1.166,8.261-4.355,8.78-5.632.915-6.281-5.087-11.6-4.224-3.4.553-5.823,4.438-4.7,11.346l2.385,14.666c1.572,9.672,6.349,6.168,7.177,11.269.4,2.445-1.324,3.27-4.4,3.772l-17.216,2.8c-3.19.52-5.223.086-5.6-2.251-.811-5,4.934-3.2,3.362-12.875l-3.2-19.661c-.431-2.657-2.285-3.992-4.227-5.2a4.082,4.082,0,0,1-2.556-2.968c-.309-1.914.509-2.92,2.867-4.5,3.834-2.587,11.531-6.24,13.323-6.639,1.912-.311,2.863.844,3.243,3.181L414,56.106c3.213-7.069,8.343-10.412,13.02-11.173,6.268-1.019,10.664,2.52,11.631,8.473" transform="translate(-393.658 -44.759)" fill="#17100d"/>
</svg>
