<svg xmlns="http://www.w3.org/2000/svg" width="112.592" height="106.091" viewBox="0 0 112.592 106.091">
  <path id="Trazado_4" data-name="Trazado 4" d="M273.547,91.727l24.789,9.435c13.243,5.03,17.339-.709,21.036,5.22,1.933,3.1-.072,5.286-3.845,7.641L288.307,131c-4.177,2.605-7.194,3.176-9.042.212-3.615-5.8,5.767-8.464-7.476-13.494l-10.066-3.829-.985,10.723c-1.445,14.191,5.078,6.939,8.775,12.868,1.934,3.1-.072,5.286-3.845,7.641l-12.4,7.732c-4.177,2.606-7.19,3.174-9.039.21-3.614-5.8,3.123-7,5-21.089l2.644-21.865-22.566-8.573c-13.243-5.03-17.34.707-21.038-5.222-1.933-3.1.076-5.288,3.847-7.639l27.356-17.063c4.04-2.52,7.053-3.089,8.819-.258,3.7,5.929-5.681,8.6,7.562,13.625l7.319,2.734,1.138-8.382c2.1-14.039-4.641-6.839-8.339-12.768-1.933-3.1.072-5.286,3.846-7.64l12.4-7.732c4.176-2.606,7.19-3.174,8.955-.344,3.7,5.929-3.037,7.133-5,21.089Z" transform="translate(-207.527 -48.965)" fill="#17100d"/>
</svg>
