<svg xmlns="http://www.w3.org/2000/svg" xmlns:xlink="http://www.w3.org/1999/xlink" width="172.245" height="167.139" viewBox="0 0 172.245 167.139">
  <defs>
    <clipPath id="clip-path">
      <rect id="Rectángulo_4" data-name="Rectángulo 4" width="134.942" height="142.163" transform="translate(0 0)" fill="none"/>
    </clipPath>
  </defs>
  <g id="Grupo_12" data-name="Grupo 12" transform="matrix(-0.259, 0.966, -0.966, -0.259, 172.245, 36.794)">
    <g id="Grupo_7" data-name="Grupo 7" transform="translate(0 0)" clip-path="url(#clip-path)">
      <path id="Trazado_3027" data-name="Trazado 3027" d="M68.57,0l.514.585s-.314.292-.9.817c-.622.536-1.526,1.326-2.614,2.306-2.252,1.932-5.543,4.763-9.348,8.054-3.886,3.334-8.531,7.026-13.083,11.529-4.623,4.4-9.586,9.072-14.306,13.879-2.317,2.474-4.72,4.866-6.739,7.486-1.039,1.288-2.116,2.517-3.1,3.811-.947,1.3-1.884,2.582-2.744,3.93-.433.671-.85,1.326-1.272,1.987-.4.677-.785,1.337-1.164,2-.769,1.326-1.5,2.609-2.225,3.865-1.407,2.533-2.636,4.985-3.811,7.2-2.219,4.514-3.995,8.287-5.191,10.934S.709,82.551.709,82.551L0,82.221s.682-1.516,1.884-4.162,2.977-6.43,5.207-10.966c1.175-2.235,2.4-4.693,3.832-7.226.72-1.272,1.472-2.571,2.23-3.9.384-.655.769-1.326,1.175-2.014.422-.66.861-1.326,1.277-1.987C16.466,50.6,17.4,49.3,18.366,48c.985-1.3,2.068-2.555,3.123-3.849,2.041-2.641,4.444-5.034,6.771-7.513,4.769-4.855,9.711-9.516,14.344-13.927,4.568-4.5,9.207-8.206,13.088-11.529C59.5,7.876,62.8,5.05,65.052,3.107c1.088-.963,2-1.759,2.6-2.284S68.57,0,68.57,0" transform="translate(46.291 17.866)" fill="#333"/>
      <path id="Trazado_3028" data-name="Trazado 3028" d="M11.787,10.357c1.835-1.71,3.621-3.275,5.31-4.65a39.8,39.8,0,0,1,4.7-3.48C24.626.419,26.661-.4,27.213.192s-.455,2.512-2.544,5.1C23.63,6.6,22.309,8,20.821,9.664c-1.5,1.613-3.231,3.334-5.072,5.077-1.862,1.759-3.735,3.248-5.456,4.617a53.109,53.109,0,0,1-4.758,3.367C2.693,24.485.669,25.253.144,24.652c-.547-.628.493-2.512,2.647-5.072,1.077-1.267,2.376-2.766,3.913-4.309,1.5-1.575,3.275-3.2,5.083-4.915" transform="translate(107.577 -0.004)" fill="#333"/>
      <path id="Trazado_3029" data-name="Trazado 3029" d="M.238,0a35.271,35.271,0,0,1,9.905,8.991,50.222,50.222,0,0,1,3.47,5.2l.184.325.087.168.022.043.016.022c.054-.1-.06.152-.049.13l.005.005.043.087.357.66.671,1.288c.411.882.8,1.732,1.191,2.555.173.428.368.807.52,1.256.1.487.217.969.319,1.451.189.963.373,1.894.5,2.8.07.455.124.9.184,1.342.06.417.081.888.168,1.212.125.709.233,1.369.325,1.97.184,1.223.287,2.219.352,2.918.06.671.108,1.061.108,1.088l-.417.13c-.005-.032-.043-.4-.124-1.066s-.206-1.651-.357-2.88c-.1-.6-.206-1.261-.309-1.97a8.508,8.508,0,0,1-.2-1.115c-.054-.433-.124-.877-.184-1.326-.135-.9-.309-1.83-.5-2.782-.1-.471-.211-.936-.319-1.434l-.173-.72-.276-.639a55.934,55.934,0,0,0-2.549-5.1l-.032-.049-.016-.011-.005-.011c-.038.1.07-.152.065-.13l-.06-.081-.087-.162-.2-.33-.4-.639-.834-1.3c-.563-.861-1.175-1.721-1.83-2.566A35.085,35.085,0,0,0,0,.433Z" transform="translate(46.588 99.806)" fill="#333"/>
      <path id="Trazado_3030" data-name="Trazado 3030" d="M.238,0A21.686,21.686,0,0,1,8.715,9.18a27.08,27.08,0,0,1,1.142,2.669l.249.682.1.336.06.179c-.087.184-.016.054-.038.1l.005.016.011.022.011.032.022.1.373,1.348c.222.909.417,1.813.558,2.712l.1.66.011.774c-.011.53-.022,1.05-.038,1.548-.038,1.034-.108,2.062-.211,3.053-.087.92-.152,1.765-.227,2.577-.1.839-.195,1.629-.292,2.355-.1.709-.206,1.364-.3,1.949-.2,1.185-.433,2.2-.568,2.82-.168.65-.244,1-.265,1.034l-.39-.114c.016-.032.1-.379.249-1.018.141-.612.368-1.591.579-2.766.087-.579.189-1.223.292-1.916.087-.687.173-1.489.276-2.311.06-.79.119-1.635.206-2.533.076-.926.168-1.954.206-2.966.005-.482.011-1,.032-1.516l-.016-.758-.011-.39-.049-.341c-.141-.871-.33-1.754-.536-2.647l-.373-1.337-.114-.336-.049-.173-.022-.076-.011-.049-.005-.016c.076-.195.016-.054.032-.108v-.011l-.233-.666a26.421,26.421,0,0,0-1.137-2.62A21.444,21.444,0,0,0,0,.433Z" transform="translate(46.588 99.806)" fill="#333"/>
      <path id="Trazado_3031" data-name="Trazado 3031" d="M.238,0A208.161,208.161,0,0,1,19.064,12.617c2.187,1.656,3.876,3.015,5.029,3.962l1.321,1.1.471.422-.265.384a6.169,6.169,0,0,1-.471-.406c-.3-.254-.747-.622-1.315-1.088-1.153-.958-2.847-2.317-5.034-3.962A202.366,202.366,0,0,0,0,.433Z" transform="translate(46.588 99.806)" fill="#333"/>
      <path id="Trazado_3032" data-name="Trazado 3032" d="M3.659,0C7.145,2.068,9.245,5.375,9.992,9.8l.168,1.261.027.325.016.022-.016.011c-.06.141-.016.049-.022.081l.005.038.005.076.005.168.038.65c.032.871.016,1.759-.032,2.663l-.049.682c-.032.244-.081.5-.119.758L9.711,18.1l-.363,1.6c-.13.563-.265,1.126-.373,1.581A71.22,71.22,0,0,1,5.2,32.109c-.66,1.537-1.3,2.928-1.889,4.184-.612,1.256-1.115,2.322-1.543,3.2-.433.9-.774,1.591-1.007,2.068-.26.493-.4.769-.411.8L0,42.144c0-.016.152-.3.411-.785C.65,40.883.974,40.19,1.418,39.3c.411-.866.931-1.932,1.521-3.177s1.234-2.631,1.878-4.157a66.676,66.676,0,0,0,3.74-10.7A50.29,50.29,0,0,0,9.77,15.167c.049-.893.065-1.765.027-2.62L9.77,11.9l-.027-.33-.011-.152-.005-.081V11.3l-.005-.016c.06-.135.022-.043.022-.081l.005-.005-.168-1.25A12.97,12.97,0,0,0,3.421.433Z" transform="translate(43.167 99.806)" fill="#333"/>
      <path id="Trazado_3033" data-name="Trazado 3033" d="M.238,0a25.77,25.77,0,0,1,9.3,10.393l.812,1.613.373.823.195.411.038.1.016.016c-.092.211-.032.076-.038.119l.005.022.016.049.092.2c.46,1.115.888,2.241,1.272,3.383l.536,1.705.292,2.019c.173,1.353.271,2.75.357,4.081.108,1.229.217,2.409.314,3.551.076,1.158.168,2.263.249,3.334.06,1.05.119,2.024.157,2.95.049.877.1,1.705.141,2.457s.054,1.413.07,2.019c.038.579.049,1.056.092,1.445.027.817.049,1.24.049,1.277l-.4.016c.005-.043-.011-.482-.054-1.277-.027-.4-.06-.871-.087-1.418-.027-.6-.049-1.261-.076-2-.092-1.537-.189-3.351-.3-5.342-.168-1.949-.379-4.341-.59-6.8-.076-.552-.1-1.294-.168-1.954l-.2-2.024a15.354,15.354,0,0,0-.758-3.784c-.373-1.126-.807-2.236-1.261-3.334l-.357-.828-.011-.022-.005-.011c-.011.011.081-.2.038-.119l-.016-.054-.054-.1-.087-.195L10,12.314l-.8-1.6A25.608,25.608,0,0,0,0,.433Z" transform="translate(46.588 99.806)" fill="#333"/>
      <path id="Trazado_3034" data-name="Trazado 3034" d="M.238,0A18.619,18.619,0,0,1,8.222,9.711c.173.476.341.958.493,1.451l.211.736.1.373.038.173.011.027v.005c.005-.016-.065.184-.027.108l.005.038.022.1a27.36,27.36,0,0,1,.541,2.993c.07.5.119,1.012.168,1.5.016.541-.032,1.153-.06,1.727-.081,1.169-.206,2.328-.373,3.491A68.275,68.275,0,0,1,7.432,32.986c-.368,1.288-.677,2.333-.861,2.988-.222.7-.352,1.072-.357,1.1l-.368-.152c.005-.027.124-.406.352-1.1.189-.639.487-1.662.85-2.928a64.665,64.665,0,0,0,1.867-10.36c.135-1.115.281-2.284.346-3.426.043-.563.054-1.131.087-1.71a5.614,5.614,0,0,0-.043-.769l-.1-.747a29.223,29.223,0,0,0-.53-2.945L8.6,12.574,8.547,12.4l-.022-.049v-.005c-.038.07.043-.114.043-.092l-.005-.027-.038-.092-.206-.72c-.146-.482-.292-.953-.487-1.424A18.243,18.243,0,0,0,0,.433Z" transform="translate(46.588 99.806)" fill="#333"/>
      <path id="Trazado_3035" data-name="Trazado 3035" d="M3.751,0A9.105,9.105,0,0,1,8.882,6.707a14.907,14.907,0,0,1,.3,2.111l.081,1.1v.563l-.016.287-.005.141.005.022.005.011c0-.005-.06.124-.043.07l.016.043-.005.065c-.032.774-.087,1.548-.179,2.344l-.162,1.185-.1.606-.168.677A71.151,71.151,0,0,1,5.245,26.155C4.59,27.67,3.989,29.007,3.4,30.242c-.606,1.24-1.126,2.273-1.553,3.156-.9,1.716-1.478,2.809-1.5,2.853L0,36.033c.027-.054.59-1.131,1.489-2.842.428-.866.936-1.894,1.548-3.129.59-1.207,1.18-2.528,1.813-4.022.292-.731.6-1.489.92-2.273.281-.8.568-1.624.861-2.463.568-1.575,1.056-3.6,1.537-5.332a17.325,17.325,0,0,0,.455-2.457c.092-.769.152-1.537.184-2.3l.011-.271v-.081l-.005-.022-.005-.011c.027-.043-.016.049.032-.07v-.016l.005-.141-.011-.563L8.769,8.958a13.735,13.735,0,0,0-.3-2.079A8.683,8.683,0,0,0,3.556.466Z" transform="translate(43.059 99.79)" fill="#333"/>
      <path id="Trazado_3036" data-name="Trazado 3036" d="M9.537,0c.471,1.115.184,3.789-.482,7.183-.352,1.748-.817,3.491-1.3,5.564-.292,1.045-.579,2.111-.877,3.167-.346,1.077-.65,2.062-.974,3.091-1.342,4.081-2.788,7.9-3.773,10.766C1.635,31.2,1.223,32.4.92,33.294c-.287.882-.476,1.44-.53,1.586L0,34.756c.011-.032.179-.509.449-1.326s.677-2,1.153-3.383c1-2.826,2.3-6.56,3.751-10.7l.991-3.085c.3-1.045.612-2.127.9-3.172.325-1.034.487-2.051.72-2.966s.417-1.786.628-2.69c.7-3.41,1.007-6.089.558-7.167Z" transform="translate(37.365 99.887)" fill="#333"/>
      <path id="Trazado_3037" data-name="Trazado 3037" d="M.238,0a25.77,25.77,0,0,1,9.3,10.393l.812,1.613.373.823.195.411.038.1.016.016c-.092.211-.032.076-.038.119l.005.022.016.049.092.2c.46,1.115.888,2.241,1.272,3.383l.536,1.705.292,2.019c.173,1.353.271,2.75.357,4.081.108,1.229.217,2.409.314,3.551.076,1.158.168,2.263.249,3.334.06,1.05.119,2.024.157,2.95.049.877.1,1.705.141,2.457s.054,1.413.07,2.019c.038.579.049,1.056.092,1.445.027.817.049,1.24.049,1.277l-.4.016c.005-.043-.011-.482-.054-1.277-.027-.4-.06-.871-.087-1.418-.027-.6-.049-1.261-.076-2-.092-1.537-.189-3.351-.3-5.342-.168-1.949-.379-4.341-.59-6.8-.076-.552-.1-1.294-.168-1.954l-.2-2.024a15.354,15.354,0,0,0-.758-3.784c-.373-1.126-.807-2.236-1.261-3.334l-.357-.828-.011-.022-.005-.011c-.011.011.081-.2.038-.119l-.016-.054-.054-.1-.087-.195L10,12.314l-.8-1.6A25.608,25.608,0,0,0,0,.433Z" transform="translate(46.588 99.806)" fill="#333"/>
      <path id="Trazado_3038" data-name="Trazado 3038" d="M5.148,0C6.9,1.137,7.535,3.61,7.529,6.669A21.388,21.388,0,0,1,7.41,9.039c-.108.893-.2,1.689-.346,2.566l-.249,1.3-.135.66-.184.7c-.26.985-.509,1.959-.774,2.928A93.28,93.28,0,0,1,2.279,26.94c-1.088,2.566-1.8,4.222-1.9,4.46L0,31.216c.022-.022.206-.433.509-1.131s.72-1.721,1.229-2.939c1-2.441,2.333-5.84,3.432-9.527.26-.963.514-1.932.779-2.928L6.3,13.272l.249-1.3c.146-.861.276-1.705.373-2.528.114-.9.146-1.646.173-2.414C7.161,3.973,6.582,1.532,4.9.422Z" transform="translate(41.684 99.811)" fill="#333"/>
      <path id="Trazado_3039" data-name="Trazado 3039" d="M.238,0A204.41,204.41,0,0,0,19.984,10.366c2.436,1.1,4.363,1.905,5.683,2.447.655.254,1.18.455,1.526.59a4.726,4.726,0,0,0,.563.2l-.157.466c-.011-.011-.195-.076-.558-.206s-.866-.336-1.543-.6c-1.332-.536-3.264-1.342-5.689-2.447A206.44,206.44,0,0,1,0,.433Z" transform="translate(46.588 99.806)" fill="#333"/>
      <path id="Trazado_3040" data-name="Trazado 3040" d="M.238,0A54.733,54.733,0,0,1,11,8.541c1.559,1.575,3.026,3.177,4.347,4.774.655.8,1.288,1.581,1.911,2.349l.455.579.222.292.1.141.022.016V16.7c-.022.065.076-.135-.06.162l.022.032.065.07c.276.4.552.763.828,1.148,1.083,1.5,2.035,2.918,2.858,4.206.211.325.411.65.6.942a8.608,8.608,0,0,1,.455,1.072c.26.714.5,1.391.714,2,.406,1.24.709,2.273.9,2.988.184.731.281,1.142.287,1.169,0,0-.455.438-.438.406l-.092-.314c-.06-.195-.124-.476-.227-.844-.179-.709-.466-1.738-.888-2.966-.211-.606-.455-1.272-.7-2-.141-.357-.287-.72-.433-1.077l-.222-.585c-.092-.179-.2-.325-.3-.487-.828-1.283-1.775-2.7-2.847-4.19-.281-.368-.547-.752-.834-1.126l-.428-.585-.217-.281-.016-.016c.125-.287.032-.081.054-.157l-.005-.005-.032-.038-.049-.076L16.937,16c-.606-.758-1.245-1.526-1.894-2.333-1.326-1.575-2.766-3.172-4.319-4.742A55.319,55.319,0,0,0,0,.433Z" transform="translate(46.588 99.806)" fill="#333"/>
      <path id="Trazado_3041" data-name="Trazado 3041" d="M39.427,1.837l-.173.466A38.108,38.108,0,0,0,25.527.533C24.4.6,23.281.717,22.187.847c-.563.092-1.1.168-1.64.244l-.823.135-.4.07-.206.038-.043.011-.027.005h-.011c.1-.265.016-.06.043-.124l-.1.011c-2.143.384-4.206.871-6.138,1.4-.244.065-.482.152-.7.195l-.666.049c-.428.022-.855.054-1.267.076-.807.049-1.57.092-2.306.135-.368.016-.714.032-1.05.06a8.914,8.914,0,0,0-1.05.189c-.687.168-1.342.314-1.905.444-1.185.314-2.106.547-2.717.725C.5,4.744.108,4.869.092,4.885L0,4.441c.016-.005.108-.032.3-.1a6.133,6.133,0,0,1,.763-.244c.639-.168,1.543-.4,2.728-.709.6-.146,1.234-.287,1.932-.455a4.39,4.39,0,0,1,1.012-.1c.325-.022.677-.049,1.039-.065.742-.049,1.521-.1,2.349-.135.411-.038.823-.065,1.261-.092.46-.081.953-.254,1.429-.39.947-.227,1.943-.482,3.015-.747l1.57-.352L18.187.9l.1-.016c-.114.276-.022.07-.043.13h.043l.043-.016.206-.038.4-.081A56.12,56.12,0,0,1,25.576.035a39.081,39.081,0,0,1,13.851,1.8" transform="translate(7.556 98.039)" fill="#333"/>
      <path id="Trazado_3042" data-name="Trazado 3042" d="M36.948,1.005l-.173.466a20.5,20.5,0,0,0-13.126.189c-.541.2-1.05.406-1.537.6l-.384.152-.2.092-.087.038-.038.016-.032.011c-.005.027.076-.184.043-.092l-.038.011-.758.341c-1,.471-1.981.991-2.934,1.543a16.051,16.051,0,0,1-2.712,1.3l-1.229.552a9.588,9.588,0,0,0-1.212.622,49.737,49.737,0,0,0-4.72,3.161c-.731.579-1.407,1.115-2.051,1.613C5.1,12.2,4.5,12.746,3.935,13.255c-.552.52-1.045.985-1.489,1.413-.428.449-.839.871-1.158,1.223C.66,16.578.3,16.99.271,17.022L0,16.692c.032-.038.417-.46,1.023-1.153.336-.341.725-.8,1.169-1.212.449-.433.958-.92,1.521-1.445.563-.493,1.185-1.05,1.84-1.624.639-.509,1.326-1.045,2.073-1.635.373-.281.758-.558,1.148-.844L9.911,8c.779-.482,1.591-.991,2.479-1.553.779-.4,1.581-.752,2.436-1.131l1.3-.541,1.456-.861a33.447,33.447,0,0,1,3-1.559l.189-.087.049-.022.027-.016c-.022.038.043-.1-.043.092h.016l.1-.049.373-.173.774-.33c.5-.195,1.023-.4,1.57-.6a21,21,0,0,1,13.31-.162" transform="translate(10.035 98.871)" fill="#333"/>
      <path id="Trazado_3043" data-name="Trazado 3043" d="M34.339,8.688l-.173.466A217.345,217.345,0,0,0,10.49,2.571c-3.129-.682-5.743-1.2-7.583-1.548C1.088.7.038.514,0,.509L.125,0C.173.011,1.218.2,3.047.525c1.83.341,4.433.855,7.573,1.543a221.048,221.048,0,0,1,23.719,6.62" transform="translate(12.644 91.189)" fill="#333"/>
      <path id="Trazado_3044" data-name="Trazado 3044" d="M23.681,1l-.173.466C18.469-.191,13.667.193,9.922,3.186l-.081.06-.022.038L9.8,3.289c.065-.162.022-.043.032-.076l-.005.005L9.8,3.224l-.162.13-.309.254-.59.547q-.6.544-1.153,1.137c-.314.379-.72.855-1.012,1.191-.319.319-.606.65-.882.98s-.525.666-.769,1l-.352.514-.379.568c-.5.785-.942,1.57-1.332,2.322a41.182,41.182,0,0,0-1.824,3.973c-.189.514-.352.974-.46,1.288S.4,17.606.4,17.617l-.4-.07c0-.022.06-.195.162-.52.119-.309.281-.785.482-1.3a43.063,43.063,0,0,1,1.867-4.076Q3.1,10.51,3.876,9.3c.287-.438.514-.774.731-1.088.254-.341.5-.687.79-1.012.271-.341.585-.677.9-1,.33-.438.682-.85,1.05-1.25a13.3,13.3,0,0,1,1.164-1.18c.211-.184.406-.363.617-.547l.162-.135.087-.07c-.054.162-.016.032-.027.076l.027-.016.032-.032.325-.26C13.624-.294,18.517-.711,23.681,1" transform="translate(23.302 98.877)" fill="#333"/>
      <path id="Trazado_3045" data-name="Trazado 3045" d="M46.983.966l-.173.466a23.728,23.728,0,0,0-14.582.438l-.942.309-.233.076-.124.054h-.016c-.038.092.038-.108.027-.1l-.027.016-.07.016-.46.173c-.639.238-1.283.482-1.884.725-.655.281-1.272.541-1.889.8l-.936.433a8.648,8.648,0,0,1-.893.26L21.4,5.578a5.273,5.273,0,0,0-.855.319l-.888.373-1.716.752A59.755,59.755,0,0,0,5.7,14.331c-.823.628-1.564,1.185-2.225,1.759-.677.6-1.25,1.131-1.743,1.564-.942.9-1.5,1.429-1.532,1.461L0,18.683c.049-.038.622-.568,1.564-1.478.487-.444,1.077-.974,1.743-1.575.666-.509,1.407-1.093,2.246-1.748.411-.319.844-.644,1.294-.98.233-.168.46-.341.687-.514l.7-.46c.926-.6,1.922-1.223,3.01-1.911.52-.336,1.045-.622,1.586-.915.53-.276,1.077-.568,1.613-.871.585-.292,1.131-.568,1.732-.866.541-.249,1.11-.509,1.667-.758l1.743-.758.893-.373c.281-.119.541-.162.817-.254l3.416-.947a5.386,5.386,0,0,0,.92-.373l.953-.444c.612-.265,1.25-.541,1.894-.807l.958-.368L29.9,2.1l.249-.092.114-.038.065-.027c-.081.211-.032.049-.038.1l.005-.005h.043c.622-.217,1.25-.433,1.9-.66A24.2,24.2,0,0,1,46.983.966" transform="translate(0 98.91)" fill="#333"/>
      <path id="Trazado_3046" data-name="Trazado 3046" d="M27.957.889l-.173.466a15.3,15.3,0,0,0-10.674.152,14.537,14.537,0,0,0-2.436,1.332l-.309.189-.146.108-.076.049-.016.016c-.022.07.043-.108.032-.087l-.005.005-.022.016-.032.022-.6.438c-.4.3-.8.612-1.191.963s-.774.693-1.169,1.077c-.195.184-.39.417-.574.563l-.536.449a24.589,24.589,0,0,0-2.1,2.035,47.489,47.489,0,0,0-5.467,7.8c-.66,1.2-1.164,2.154-1.532,2.945-.179.384-.314.682-.406.882-.1.217-.146.336-.146.336L0,20.505c0-.011.054-.124.152-.336s.233-.52.411-.9c.363-.79.877-1.781,1.559-2.993A46.591,46.591,0,0,1,7.654,8.391c.471-.514.985-1.018,1.543-1.537.287-.244.574-.493.877-.758a4.411,4.411,0,0,0,.487-.449l.509-.5a24.791,24.791,0,0,1,2.181-1.867l.3-.211.141-.108.032-.032c-.011.043.038-.087-.027.087l.011-.005.022-.022.07-.054.585-.411c.411-.265.844-.514,1.256-.758A15.3,15.3,0,0,1,27.957.889" transform="translate(19.026 98.987)" fill="#333"/>
      <path id="Trazado_3047" data-name="Trazado 3047" d="M19.508.876l-.2.46a7.7,7.7,0,0,0-8.006.59A10.01,10.01,0,0,0,8.742,4.41l-.032.038L8.7,4.47l-.005.005c0,.022.043-.1.022-.049l-.022.016-.06.1-.152.195-.281.39c-.179.26-.352.525-.541.817C7.3,6.5,6.972,7.079,6.647,7.669a34.872,34.872,0,0,0-1.678,3.242c-.536,1.142-1.083,2.382-1.532,3.551C2.485,16.833,1.732,19.09,1.2,20.817c-.233.834-.438,1.537-.568,2.046s-.206.8-.211.817L0,23.632c.049-.189.33-1.4.866-3.139.541-1.775,1.294-4.038,2.263-6.42.244-.6.493-1.2.731-1.781.254-.568.525-1.153.8-1.738.254-.547.52-1.088.8-1.618l.438-.79.238-.39L6.366,7.3c.325-.6.666-1.175,1.045-1.732.173-.287.363-.563.536-.823l.287-.379.07-.1.016-.022c.022-.054-.027.07-.022.06l.011-.011.011-.016.038-.054L8.5,4.032A10.786,10.786,0,0,1,11.113,1.52a8.093,8.093,0,0,1,8.4-.644" transform="translate(27.481 99.006)" fill="#333"/>
      <path id="Trazado_3048" data-name="Trazado 3048" d="M15.178,0l.076.466c-.877.292-2,2-3.242,4.585a40.754,40.754,0,0,0-1.905,4.5c-.346.9-.66,1.727-1.007,2.625-.33.893-.72,1.873-1.056,2.793-1.478,3.811-3.145,7.9-4.52,11.838A91.749,91.749,0,0,0,.4,37.5l-.4-.06c.038-.184.211-.877.471-1.943.141-.541.3-1.185.476-1.905.217-.72.444-1.5.7-2.365,1.018-3.448,2.674-7.881,4.428-12.347,1.792-4.466,3.41-8.985,4.9-12.547C12.563,2.853,14.041.379,15.178,0" transform="translate(31.687 99.876)" fill="#333"/>
      <path id="Trazado_3049" data-name="Trazado 3049" d="M44.293,1.148l-.173.466a26.579,26.579,0,0,0-14.3-.309c-.617.168-1.223.341-1.808.487l-.466.135L27.329,2l-.119.027-.022.005-.016.011c.016-.043-.049.108.027-.1l-.049.011-.92.287c-1.2.384-2.4.817-3.572,1.288a14.758,14.758,0,0,1-3.356.936l-1.548.346a8.957,8.957,0,0,0-1.532.406,59.42,59.42,0,0,0-6.035,2.43c-.958.466-1.851.9-2.663,1.294-.893.5-1.7.969-2.409,1.391-.742.444-1.413.855-2,1.212-.612.428-1.131.8-1.543,1.093C.677,13.284.2,13.641.162,13.668L0,13.219c.043-.022.52-.373,1.407-1.045a37.857,37.857,0,0,1,3.567-2.3c.731-.417,1.57-.931,2.42-1.369.828-.39,1.71-.834,2.69-1.294.476-.222.969-.46,1.461-.677.476-.195.985-.39,1.467-.579.991-.379,2.03-.763,3.134-1.169.969-.222,2-.444,3.053-.682l1.64-.352,1.786-.725c1.185-.466,2.4-.9,3.6-1.283l.238-.076.054-.016.005-.005c-.07.227-.005.065-.022.114l.032-.011.108-.038.455-.146.915-.265c.606-.162,1.2-.325,1.83-.493a27.1,27.1,0,0,1,14.447.336" transform="translate(2.69 98.728)" fill="#333"/>
      <path id="Trazado_3050" data-name="Trazado 3050" d="M19.161.127l-.146.466c-1.981-.568-4.162,1.18-6.257,3.935a37.294,37.294,0,0,0-2.89,4.8c-.422.8-.877,1.624-1.337,2.479-.444.855-.888,1.705-1.315,2.539-1.878,3.686-3.67,7.529-4.893,10.523-.622,1.5-1.1,2.75-1.424,3.67S.4,29.979.4,30L0,29.887c.016-.038.195-.558.5-1.478s.812-2.187,1.434-3.675c1.234-3.02,3.047-6.885,4.926-10.588.633-1.223,1.229-2.376,1.8-3.459.59-1.061,1.077-1.943,1.64-3,.53-.969,1.083-1.916,1.57-2.652A21.928,21.928,0,0,1,13.462,2.98C15.557.593,17.473-.371,19.161.127" transform="translate(27.8 99.749)" fill="#333"/>
      <path id="Trazado_3051" data-name="Trazado 3051" d="M28.672,11.941l-.173.466c-8.845-2.945-16.087-6.052-20.9-8.2-2.43-1.1-4.319-2.024-5.613-2.674C1.353,1.191.866.931.53.752S.016.466,0,.466L.227,0c.022,0,.195.1.53.281s.823.449,1.467.779C3.5,1.716,5.386,2.641,7.805,3.74a221.7,221.7,0,0,0,20.867,8.2" transform="translate(18.312 87.935)" fill="#333"/>
      <path id="Trazado_3052" data-name="Trazado 3052" d="M36.169,4.468,36,4.933A85.161,85.161,0,0,0,22.853,1.718,89.4,89.4,0,0,0,11.4.733C10.56.722,9.732.7,8.98.69H8.39L8.108.7,7.962.7H7.9c.027-.087-.081.189.07-.195L7.951.506H7.908c-.352-.005-.731,0-1.066,0-1.407.038-2.609.081-3.6.1C2.214.679,1.434.717.888.755S.016.825,0,.836L.038.327.915.257C1.461.224,2.257.165,3.291.1,3.784.084,4.341.067,4.947.051c.3-.022.617-.022.936-.032l.5-.011h.265L6.766,0h.016c.022-.038-.141.4-.065.206h.1c1.4-.027,2.95-.022,4.65.022a86.923,86.923,0,0,1,11.508,1,85.457,85.457,0,0,1,13.2,3.237" transform="translate(10.815 95.408)" fill="#333"/>
    </g>
  </g>
</svg>
