<svg xmlns="http://www.w3.org/2000/svg" xmlns:xlink="http://www.w3.org/1999/xlink" width="164.323" height="173.116" viewBox="0 0 164.323 173.116">
  <defs>
    <clipPath id="clip-path">
      <rect id="Rectángulo_4" data-name="Rectángulo 4" width="164.323" height="173.116" fill="none"/>
    </clipPath>
  </defs>
  <g id="Grupo_8" data-name="Grupo 8" transform="translate(0 0)">
    <g id="Grupo_7" data-name="Grupo 7" transform="translate(0 0)" clip-path="url(#clip-path)">
      <path id="Trazado_3027" data-name="Trazado 3027" d="M4.241,108.237l-.626-.712s.382-.356,1.1-1c.758-.653,1.859-1.615,3.184-2.808,2.742-2.353,6.75-5.8,11.383-9.808,4.733-4.06,10.388-8.556,15.931-14.04,5.629-5.352,11.673-11.047,17.421-16.9,2.821-3.012,5.748-5.926,8.206-9.116,1.266-1.569,2.577-3.065,3.77-4.64,1.153-1.589,2.294-3.144,3.342-4.785.527-.817,1.035-1.615,1.549-2.419.488-.824.956-1.628,1.417-2.439.936-1.615,1.826-3.177,2.709-4.706,1.714-3.085,3.21-6.071,4.64-8.773,2.7-5.5,4.864-10.091,6.321-13.315s2.287-5.069,2.287-5.069l.863.4s-.831,1.846-2.294,5.069-3.625,7.831-6.341,13.354c-1.43,2.722-2.92,5.715-4.667,8.8-.877,1.549-1.793,3.131-2.716,4.746-.468.8-.936,1.615-1.43,2.452-.514.8-1.048,1.615-1.556,2.419-1.048,1.661-2.188,3.25-3.362,4.838-1.2,1.582-2.518,3.111-3.8,4.686-2.485,3.217-5.412,6.13-8.246,9.149C47.52,69.539,41.5,75.214,35.86,80.586c-5.563,5.477-11.212,9.993-15.938,14.04-4.64,4.021-8.654,7.461-11.4,9.828-1.325,1.173-2.439,2.142-3.164,2.782s-1.121,1-1.121,1" transform="translate(20.213 43.123)" fill="#333"/>
      <path id="Trazado_3028" data-name="Trazado 3028" d="M18.97,39.326c-2.234,2.083-4.41,3.988-6.466,5.662a48.467,48.467,0,0,1-5.728,4.238C3.335,51.428.857,52.43.184,51.7s.554-3.058,3.1-6.209c1.266-1.589,2.874-3.3,4.686-5.326,1.832-1.964,3.935-4.06,6.176-6.183,2.267-2.142,4.548-3.955,6.644-5.622a64.673,64.673,0,0,1,5.794-4.1c3.46-2.142,5.926-3.078,6.565-2.347.666.765-.6,3.058-3.223,6.176-1.312,1.542-2.894,3.368-4.766,5.247-1.826,1.918-3.988,3.9-6.189,5.985" transform="translate(0 121.182)" fill="#333"/>
      <path id="Trazado_3029" data-name="Trazado 3029" d="M35.262,42.581A42.951,42.951,0,0,1,23.2,31.633,61.157,61.157,0,0,1,18.974,25.3l-.224-.4-.105-.2-.026-.053-.02-.026c-.066.125.073-.185.059-.158l-.007-.007-.053-.105-.435-.8-.817-1.569c-.5-1.074-.976-2.109-1.45-3.111-.211-.521-.448-.982-.633-1.529-.125-.593-.264-1.18-.389-1.766-.231-1.173-.455-2.307-.606-3.414-.086-.554-.152-1.1-.224-1.635-.073-.508-.1-1.081-.2-1.476-.152-.863-.283-1.668-.4-2.4-.224-1.49-.349-2.7-.428-3.553-.073-.817-.132-1.292-.132-1.325l.508-.158c.007.04.053.488.152,1.3s.25,2.01.435,3.507c.119.732.25,1.536.376,2.4a10.361,10.361,0,0,1,.244,1.358c.066.527.152,1.068.224,1.615.165,1.094.376,2.228.606,3.388.125.573.257,1.14.389,1.747l.211.877.336.778a68.112,68.112,0,0,0,3.1,6.209l.04.059.02.013.007.013c.046-.125-.086.185-.079.158l.073.1.105.2.244.4.481.778,1.015,1.582c.686,1.048,1.43,2.1,2.228,3.124a42.724,42.724,0,0,0,11.95,10.843Z" transform="translate(72.039 8.998)" fill="#333"/>
      <path id="Trazado_3030" data-name="Trazado 3030" d="M27.719,43.09A26.408,26.408,0,0,1,17.4,31.911a32.976,32.976,0,0,1-1.391-3.25l-.3-.831-.119-.409-.073-.218c.105-.224.02-.066.046-.119l-.007-.02-.013-.026L15.525,27l-.026-.119-.455-1.641c-.27-1.107-.508-2.208-.679-3.3l-.119-.8-.013-.943c.013-.646.026-1.279.046-1.885.046-1.259.132-2.511.257-3.718.105-1.121.185-2.149.277-3.137.125-1.022.237-1.984.356-2.867.119-.863.25-1.661.363-2.373.244-1.444.527-2.676.692-3.434.2-.791.3-1.213.323-1.259l.475.138c-.02.04-.125.461-.3,1.239-.171.745-.448,1.938-.705,3.368-.105.705-.231,1.49-.356,2.333-.105.837-.211,1.813-.336,2.815-.073.962-.145,1.991-.25,3.085-.092,1.127-.2,2.379-.25,3.612-.007.587-.013,1.213-.04,1.846l.02.923.013.475.059.415c.171,1.061.4,2.136.653,3.223l.455,1.628.138.409.059.211.026.092.013.059.007.02c-.092.237-.02.066-.04.132v.013l.283.811a32.174,32.174,0,0,0,1.384,3.19A26.113,26.113,0,0,0,28.009,42.562Z" transform="translate(79.582 8.49)" fill="#333"/>
      <path id="Trazado_3031" data-name="Trazado 3031" d="M42.771,26.92A253.484,253.484,0,0,1,19.846,11.555c-2.663-2.017-4.719-3.671-6.123-4.825L12.114,5.392l-.573-.514.323-.468a7.511,7.511,0,0,1,.573.494c.369.31.91.758,1.6,1.325,1.4,1.167,3.467,2.821,6.13,4.825A246.427,246.427,0,0,0,43.061,26.392Z" transform="translate(64.53 24.66)" fill="#333"/>
      <path id="Trazado_3032" data-name="Trazado 3032" d="M23.073,51.577c-4.245-2.518-6.8-6.545-7.712-11.937l-.2-1.536-.033-.4-.02-.026.02-.013c.073-.171.02-.059.026-.1l-.007-.046-.007-.092-.007-.2-.046-.791c-.04-1.061-.02-2.142.04-3.243l.059-.831c.04-.3.1-.606.145-.923l.376-1.9.442-1.944c.158-.686.323-1.371.455-1.925a86.726,86.726,0,0,1,4.6-13.2c.8-1.872,1.589-3.566,2.3-5.1.745-1.529,1.358-2.828,1.879-3.9.527-1.1.943-1.938,1.226-2.518.316-.6.488-.936.5-.969l.422.257c0,.02-.185.363-.5.956-.29.58-.685,1.424-1.226,2.511-.5,1.055-1.134,2.353-1.852,3.869s-1.5,3.2-2.287,5.062a81.193,81.193,0,0,0-4.555,13.031,61.24,61.24,0,0,0-1.476,7.422c-.059,1.088-.079,2.149-.033,3.19l.033.784.033.4.013.185.007.1v.053l.007.02c-.073.165-.026.053-.026.1l-.007.007.2,1.523c.89,5.214,3.368,9.136,7.5,11.581Z" transform="translate(84.228 0.002)" fill="#333"/>
      <path id="Trazado_3033" data-name="Trazado 3033" d="M31.091,51.2c-4.937-2.933-8.582-7.494-11.324-12.655l-.989-1.964-.455-1-.237-.5-.046-.125-.02-.02c.112-.257.04-.092.046-.145l-.007-.026-.02-.059-.112-.244c-.56-1.358-1.081-2.729-1.549-4.12l-.653-2.076L15.37,25.8c-.211-1.648-.33-3.348-.435-4.97-.132-1.5-.264-2.933-.382-4.324-.092-1.411-.2-2.755-.3-4.06-.073-1.279-.145-2.465-.191-3.592-.059-1.068-.125-2.076-.171-2.992S13.821,4.141,13.8,3.4c-.046-.705-.059-1.285-.112-1.76-.033-1-.059-1.509-.059-1.556l.481-.02c-.007.053.013.587.066,1.556.033.481.073,1.061.105,1.727.033.725.059,1.536.092,2.439.112,1.872.231,4.08.369,6.506.2,2.373.461,5.286.718,8.279.092.672.125,1.575.2,2.379l.244,2.465a18.7,18.7,0,0,0,.923,4.607c.455,1.371.982,2.722,1.536,4.06l.435,1.008.013.026.007.013c.013-.013-.1.244-.046.145l.02.066.066.119.105.237.237.5.976,1.944c2.722,5.108,6.328,9.623,11.2,12.524Z" transform="translate(76.21 0.382)" fill="#333"/>
      <path id="Trazado_3034" data-name="Trazado 3034" d="M26.14,46.126A22.673,22.673,0,0,1,16.418,34.3c-.211-.58-.415-1.167-.6-1.766l-.257-.9-.119-.455-.046-.211-.013-.033v-.007c-.007.02.079-.224.033-.132l-.007-.046-.026-.119a33.317,33.317,0,0,1-.659-3.645c-.086-.613-.145-1.233-.2-1.826-.02-.659.04-1.4.073-2.1.1-1.424.25-2.834.455-4.251A83.141,83.141,0,0,1,17.38,5.958c.448-1.569.824-2.841,1.048-3.638.27-.85.428-1.305.435-1.345l.448.185c-.007.033-.152.494-.428,1.338-.231.778-.593,2.024-1.035,3.566a78.745,78.745,0,0,0-2.274,12.616c-.165,1.358-.343,2.782-.422,4.172-.053.685-.066,1.378-.105,2.083a6.836,6.836,0,0,0,.053.936l.119.91a35.585,35.585,0,0,0,.646,3.586l.1.448.059.218.026.059V31.1c.046-.086-.053.138-.053.112l.007.033.046.112.25.877c.178.587.356,1.16.593,1.734A22.215,22.215,0,0,0,26.43,45.6Z" transform="translate(81.161 5.454)" fill="#333"/>
      <path id="Trazado_3035" data-name="Trazado 3035" d="M21.98,45.273a11.087,11.087,0,0,1-6.249-8.167,18.153,18.153,0,0,1-.369-2.571l-.1-1.345v-.686l.02-.349.007-.171-.007-.026-.007-.013c0,.007.073-.152.053-.086l-.02-.053.007-.079c.04-.943.105-1.885.218-2.854l.2-1.444.125-.738.2-.824a86.643,86.643,0,0,1,4.1-12.445c.8-1.846,1.529-3.474,2.248-4.976C23.146,6.938,23.779,5.679,24.3,4.6c1.1-2.089,1.8-3.421,1.832-3.474l.415.264c-.033.066-.718,1.378-1.813,3.46-.521,1.055-1.14,2.307-1.885,3.81-.718,1.47-1.437,3.078-2.208,4.9-.356.89-.732,1.813-1.121,2.768-.343.969-.692,1.977-1.048,3-.692,1.918-1.285,4.39-1.872,6.492a21.1,21.1,0,0,0-.554,2.992c-.112.936-.185,1.872-.224,2.8l-.013.33v.1l.007.026.007.013c-.033.053.02-.059-.04.086v.02l-.007.171.013.686.079,1.318a16.726,16.726,0,0,0,.369,2.531,10.574,10.574,0,0,0,5.978,7.811Z" transform="translate(85.341 6.326)" fill="#333"/>
      <path id="Trazado_3036" data-name="Trazado 3036" d="M16.505,43.841c-.573-1.358-.224-4.614.587-8.747.428-2.129,1-4.251,1.582-6.776.356-1.272.705-2.571,1.068-3.856.422-1.312.791-2.511,1.186-3.764,1.635-4.97,3.395-9.623,4.594-13.11.606-1.74,1.107-3.2,1.476-4.291.349-1.074.58-1.753.646-1.931l.475.152c-.013.04-.218.62-.547,1.615s-.824,2.439-1.4,4.12c-1.213,3.441-2.8,7.989-4.568,13.031L20.394,24.04c-.369,1.272-.745,2.59-1.094,3.863-.4,1.259-.593,2.5-.877,3.612s-.508,2.175-.765,3.276c-.85,4.153-1.226,7.415-.679,8.727Z" transform="translate(90.704 7.64)" fill="#333"/>
      <path id="Trazado_3037" data-name="Trazado 3037" d="M31.091,51.2c-4.937-2.933-8.582-7.494-11.324-12.655l-.989-1.964-.455-1-.237-.5-.046-.125-.02-.02c.112-.257.04-.092.046-.145l-.007-.026-.02-.059-.112-.244c-.56-1.358-1.081-2.729-1.549-4.12l-.653-2.076L15.37,25.8c-.211-1.648-.33-3.348-.435-4.97-.132-1.5-.264-2.933-.382-4.324-.092-1.411-.2-2.755-.3-4.06-.073-1.279-.145-2.465-.191-3.592-.059-1.068-.125-2.076-.171-2.992S13.821,4.141,13.8,3.4c-.046-.705-.059-1.285-.112-1.76-.033-1-.059-1.509-.059-1.556l.481-.02c-.007.053.013.587.066,1.556.033.481.073,1.061.105,1.727.033.725.059,1.536.092,2.439.112,1.872.231,4.08.369,6.506.2,2.373.461,5.286.718,8.279.092.672.125,1.575.2,2.379l.244,2.465a18.7,18.7,0,0,0,.923,4.607c.455,1.371.982,2.722,1.536,4.06l.435,1.008.013.026.007.013c.013-.013-.1.244-.046.145l.02.066.066.119.105.237.237.5.976,1.944c2.722,5.108,6.328,9.623,11.2,12.524Z" transform="translate(76.21 0.382)" fill="#333"/>
      <path id="Trazado_3038" data-name="Trazado 3038" d="M18.738,40.26c-2.136-1.384-2.907-4.4-2.9-8.121a26.044,26.044,0,0,1,.145-2.887c.132-1.088.244-2.057.422-3.124l.3-1.582.165-.8.224-.857c.316-1.2.62-2.386.943-3.566A113.59,113.59,0,0,1,22.232,7.454c1.325-3.124,2.188-5.141,2.314-5.431l.461.224c-.026.026-.25.527-.62,1.378s-.877,2.1-1.5,3.579c-1.219,2.973-2.841,7.112-4.179,11.6-.316,1.173-.626,2.353-.949,3.566L17.334,24.1l-.3,1.582c-.178,1.048-.336,2.076-.455,3.078-.138,1.094-.178,2-.211,2.94-.079,3.724.626,6.7,2.67,8.048Z" transform="translate(88.556 11.313)" fill="#333"/>
      <path id="Trazado_3039" data-name="Trazado 3039" d="M44.706,22.357A248.916,248.916,0,0,0,20.66,9.734c-2.966-1.345-5.313-2.32-6.921-2.979-.8-.31-1.437-.554-1.859-.718a5.755,5.755,0,0,0-.685-.244l.191-.567c.013.013.237.092.679.25s1.055.409,1.879.725c1.621.653,3.975,1.635,6.928,2.979A251.389,251.389,0,0,1,45,21.83Z" transform="translate(62.595 29.222)" fill="#333"/>
      <path id="Trazado_3040" data-name="Trazado 3040" d="M41.586,39.742a66.65,66.65,0,0,1-13.11-10.4c-1.9-1.918-3.685-3.869-5.293-5.814-.8-.969-1.569-1.925-2.327-2.861l-.554-.705-.27-.356-.125-.171-.026-.02V19.4c.026-.079-.092.165.073-.2l-.026-.04-.079-.086c-.336-.481-.672-.929-1.008-1.4-1.318-1.826-2.478-3.553-3.48-5.122-.257-.4-.5-.791-.732-1.147a10.482,10.482,0,0,1-.554-1.305c-.316-.87-.606-1.694-.87-2.432-.494-1.509-.863-2.768-1.1-3.638-.224-.89-.343-1.391-.349-1.424,0,0,.554-.534.534-.494L12.4,2.5c.073.237.152.58.277,1.028.218.863.567,2.116,1.081,3.612.257.738.554,1.549.857,2.432.171.435.349.877.527,1.312l.27.712c.112.218.244.4.369.593,1.008,1.562,2.162,3.283,3.467,5.1.343.448.666.916,1.015,1.371l.521.712.264.343.02.02c-.152.349-.04.1-.066.191l.007.007.04.046.059.092.145.185c.738.923,1.516,1.859,2.307,2.841,1.615,1.918,3.368,3.863,5.26,5.774A67.363,67.363,0,0,0,41.876,39.215Z" transform="translate(65.715 11.837)" fill="#333"/>
      <path id="Trazado_3041" data-name="Trazado 3041" d="M16.25,10.96l.211-.567a46.405,46.405,0,0,0,16.716,2.155c1.371-.079,2.735-.224,4.067-.382.686-.112,1.338-.2,2-.3l1-.165.488-.086.25-.046.053-.013.033-.007h.013c-.119.323-.02.073-.053.152l.125-.013c2.61-.468,5.122-1.061,7.475-1.707.3-.079.587-.185.857-.237l.811-.059c.521-.026,1.041-.066,1.542-.092.982-.059,1.911-.112,2.808-.165.448-.02.87-.04,1.279-.073A10.854,10.854,0,0,0,57.2,9.128c.837-.2,1.635-.382,2.32-.54,1.444-.382,2.564-.666,3.309-.883.817-.283,1.3-.435,1.318-.455l.112.54c-.02.007-.132.04-.363.125a7.468,7.468,0,0,1-.929.3c-.778.2-1.879.488-3.322.863-.725.178-1.5.349-2.353.554a5.346,5.346,0,0,1-1.233.119c-.4.026-.824.059-1.266.079-.9.059-1.852.119-2.861.165-.5.046-1,.079-1.536.112-.56.1-1.16.31-1.74.475-1.153.277-2.366.587-3.671.91l-1.912.428-.962.191-.125.02c.138-.336.026-.086.053-.158h-.053l-.053.02-.25.046-.488.1a68.339,68.339,0,0,1-8.081,1.022A47.59,47.59,0,0,1,16.25,10.96" transform="translate(90.86 40.534)" fill="#333"/>
      <path id="Trazado_3042" data-name="Trazado 3042" d="M16.25,24.357l.211-.567a24.968,24.968,0,0,0,15.984-.231c.659-.244,1.279-.494,1.872-.725l.468-.185.244-.112.105-.046.046-.02.04-.013c.007-.033-.092.224-.053.112l.046-.013.923-.415c1.219-.573,2.412-1.206,3.573-1.879a19.546,19.546,0,0,1,3.3-1.589l1.5-.672a11.675,11.675,0,0,0,1.476-.758A60.566,60.566,0,0,0,51.731,13.4c.89-.705,1.714-1.358,2.5-1.964.8-.712,1.529-1.371,2.221-1.991.672-.633,1.272-1.2,1.813-1.72.521-.547,1.022-1.061,1.411-1.49.765-.837,1.206-1.338,1.239-1.378l.33.4c-.04.046-.508.56-1.246,1.4-.409.415-.883.976-1.424,1.476-.547.527-1.167,1.121-1.852,1.76-.686.6-1.444,1.279-2.241,1.977-.778.62-1.615,1.272-2.524,1.991-.455.343-.923.679-1.4,1.028l-1.384.949c-.949.587-1.938,1.206-3.019,1.892-.949.481-1.925.916-2.966,1.378l-1.582.659-1.773,1.048a40.729,40.729,0,0,1-3.652,1.9l-.231.105-.059.026-.033.02c.026-.046-.053.119.053-.112h-.02l-.125.059-.455.211-.943.4c-.606.237-1.246.481-1.912.732a25.569,25.569,0,0,1-16.208.2" transform="translate(90.86 27.137)" fill="#333"/>
      <path id="Trazado_3043" data-name="Trazado 3043" d="M16.25,8.293l.211-.567a264.667,264.667,0,0,0,28.831,8.015c3.81.831,6.993,1.463,9.235,1.885,2.215.4,3.493.62,3.54.626l-.152.62c-.059-.013-1.331-.244-3.559-.639-2.228-.415-5.4-1.041-9.221-1.879A269.177,269.177,0,0,1,16.25,8.293" transform="translate(90.86 43.201)" fill="#333"/>
      <path id="Trazado_3044" data-name="Trazado 3044" d="M16.25,24.978l.211-.567c6.137,2.017,11.983,1.549,16.544-2.1l.1-.073.026-.046.026-.007c-.079.2-.026.053-.04.092l.007-.007.033-.007.2-.158.376-.31.718-.666q.732-.662,1.4-1.384c.382-.461.877-1.041,1.233-1.45.389-.389.738-.791,1.074-1.193s.639-.811.936-1.219l.428-.626.461-.692c.606-.956,1.147-1.911,1.621-2.828A50.149,50.149,0,0,0,43.828,6.9c.231-.626.428-1.186.56-1.569s.218-.58.218-.593l.481.086c0,.026-.072.237-.2.633-.145.376-.343.956-.587,1.589a52.439,52.439,0,0,1-2.274,4.963q-.712,1.384-1.661,2.861c-.349.534-.626.943-.89,1.325-.31.415-.613.837-.962,1.233-.33.415-.712.824-1.094,1.219-.4.534-.831,1.035-1.279,1.523a16.2,16.2,0,0,1-1.417,1.437c-.257.224-.494.442-.751.666l-.2.165-.105.086c.066-.2.02-.04.033-.092l-.033.02-.04.04-.4.316c-4.739,3.744-10.7,4.251-16.986,2.169" transform="translate(90.86 26.516)" fill="#333"/>
      <path id="Trazado_3045" data-name="Trazado 3045" d="M16.25,26.56l.211-.567c5.306,1.734,11.706,1.483,17.757-.534l1.147-.376.283-.092.152-.066h.02c.046-.112-.046.132-.033.119l.033-.02.086-.02.56-.211c.778-.29,1.562-.587,2.294-.883.8-.343,1.549-.659,2.3-.976l1.14-.527a10.531,10.531,0,0,1,1.088-.316L47.4,20.944a6.42,6.42,0,0,0,1.041-.389l1.081-.455,2.089-.916a72.766,72.766,0,0,0,14.91-8.9c1-.765,1.9-1.444,2.709-2.142.824-.732,1.523-1.378,2.122-1.9C72.5,5.145,73.18,4.5,73.219,4.459l.244.527c-.059.046-.758.692-1.9,1.8-.593.54-1.312,1.186-2.122,1.918-.811.62-1.714,1.331-2.735,2.129-.5.389-1.028.784-1.575,1.193-.283.2-.56.415-.837.626l-.85.56c-1.127.725-2.34,1.49-3.665,2.327-.633.409-1.272.758-1.931,1.114-.646.336-1.312.692-1.964,1.061-.712.356-1.378.692-2.109,1.055-.659.3-1.351.62-2.03.923l-2.122.923-1.088.455c-.343.145-.659.2-1,.31l-4.159,1.153a6.558,6.558,0,0,0-1.121.455l-1.16.54c-.745.323-1.523.659-2.307.982l-1.167.448-.567.224-.3.112-.138.046-.079.033c.1-.257.04-.059.046-.119l-.007.007h-.053c-.758.264-1.523.527-2.314.8-6.163,1.984-12.59,2.267-17.955.494" transform="translate(90.86 24.934)" fill="#333"/>
      <path id="Trazado_3046" data-name="Trazado 3046" d="M16.25,28.221l.211-.567a18.629,18.629,0,0,0,13-.185,17.7,17.7,0,0,0,2.966-1.621l.376-.231.178-.132.092-.059.02-.02c.026-.086-.053.132-.04.105l.007-.007.026-.02.04-.026.725-.534c.488-.369.969-.745,1.45-1.173s.943-.844,1.424-1.312c.237-.224.475-.508.7-.686l.653-.547a29.943,29.943,0,0,0,2.557-2.478,57.828,57.828,0,0,0,6.657-9.5c.8-1.457,1.417-2.623,1.865-3.586.218-.468.382-.831.494-1.074.125-.264.178-.409.178-.409l.468.171c0,.013-.066.152-.185.409s-.283.633-.5,1.1c-.442.962-1.068,2.169-1.9,3.645a56.735,56.735,0,0,1-6.736,9.6c-.573.626-1.2,1.239-1.879,1.872-.349.3-.7.6-1.068.923a5.372,5.372,0,0,0-.593.547l-.62.606a30.188,30.188,0,0,1-2.656,2.274l-.369.257-.171.132-.04.04c.013-.053-.046.105.033-.105l-.013.007-.026.026-.086.066-.712.5c-.5.323-1.028.626-1.529.923a18.629,18.629,0,0,1-15,1.068" transform="translate(90.86 23.273)" fill="#333"/>
      <path id="Trazado_3047" data-name="Trazado 3047" d="M16.249,31.367l.244-.56a9.372,9.372,0,0,0,9.749-.718,12.189,12.189,0,0,0,3.118-3.025l.04-.046.013-.026.007-.007c0-.026-.053.125-.026.059l.026-.02.073-.119.185-.237.343-.475c.218-.316.428-.639.659-1,.442-.679.837-1.384,1.233-2.1a42.464,42.464,0,0,0,2.043-3.948c.653-1.391,1.318-2.9,1.865-4.324,1.16-2.887,2.076-5.636,2.729-7.738.283-1.015.534-1.872.692-2.492s.25-.969.257-1L40,3.657c-.059.231-.4,1.7-1.055,3.823-.659,2.162-1.575,4.917-2.755,7.817-.3.732-.6,1.457-.89,2.169-.31.692-.639,1.4-.969,2.116-.31.666-.633,1.325-.969,1.971l-.534.962-.29.475-.29.554c-.4.725-.811,1.43-1.272,2.109-.211.349-.442.686-.653,1l-.349.461-.086.125-.02.026c-.026.066.033-.086.026-.073l-.013.013-.013.02-.046.066-.178.231a13.135,13.135,0,0,1-3.177,3.058,9.855,9.855,0,0,1-10.223.784" transform="translate(90.854 20.12)" fill="#333"/>
      <path id="Trazado_3048" data-name="Trazado 3048" d="M16.35,46.549l-.092-.567c1.068-.356,2.432-2.439,3.948-5.583a49.629,49.629,0,0,0,2.32-5.484c.422-1.1.8-2.1,1.226-3.2.4-1.088.877-2.281,1.285-3.4,1.8-4.64,3.83-9.617,5.5-14.415A111.726,111.726,0,0,0,34.345.884l.488.073c-.046.224-.257,1.068-.573,2.366-.171.659-.363,1.444-.58,2.32-.264.877-.54,1.826-.857,2.88-1.239,4.2-3.256,9.6-5.392,15.035C25.249,29,23.278,34.5,21.459,38.837c-1.925,4.238-3.724,7.251-5.108,7.712" transform="translate(90.905 4.945)" fill="#333"/>
      <path id="Trazado_3049" data-name="Trazado 3049" d="M16.25,20.745l.211-.567a32.366,32.366,0,0,0,17.414.376c.751-.2,1.49-.415,2.2-.593l.567-.165.264-.086.145-.033.026-.007.02-.013c-.02.053.059-.132-.033.125l.059-.013,1.121-.349c1.457-.468,2.92-1,4.35-1.569a17.971,17.971,0,0,1,4.087-1.14l1.885-.422a10.907,10.907,0,0,0,1.865-.494,72.358,72.358,0,0,0,7.349-2.96c1.167-.567,2.254-1.1,3.243-1.575,1.088-.613,2.07-1.18,2.933-1.694.9-.54,1.72-1.041,2.439-1.476.745-.521,1.378-.969,1.879-1.331,1.088-.791,1.668-1.226,1.714-1.259l.2.547c-.053.026-.633.455-1.714,1.272a46.1,46.1,0,0,1-4.344,2.795c-.89.508-1.911,1.134-2.946,1.668-1.008.475-2.083,1.015-3.276,1.575-.58.27-1.18.56-1.78.824-.58.237-1.2.475-1.786.705-1.206.461-2.472.929-3.816,1.424-1.18.27-2.439.54-3.718.831l-2,.428-2.175.883c-1.444.567-2.927,1.1-4.39,1.562l-.29.092-.066.02-.007.007c.086-.277.007-.079.026-.138l-.04.013-.132.046-.554.178-1.114.323c-.738.2-1.463.4-2.228.6a33,33,0,0,1-17.592-.409" transform="translate(90.86 30.749)" fill="#333"/>
      <path id="Trazado_3050" data-name="Trazado 3050" d="M16.254,38.665l.178-.567c2.412.692,5.069-1.437,7.62-4.792a45.415,45.415,0,0,0,3.52-5.847c.514-.969,1.068-1.977,1.628-3.019.54-1.041,1.081-2.076,1.6-3.091,2.287-4.489,4.469-9.169,5.959-12.814.758-1.826,1.345-3.348,1.734-4.469s.606-1.753.613-1.773l.481.132c-.02.046-.237.679-.613,1.8S37.986,6.888,37.228,8.7c-1.5,3.678-3.711,8.384-6,12.893-.771,1.49-1.5,2.894-2.188,4.212-.718,1.292-1.312,2.366-2,3.658-.646,1.18-1.318,2.333-1.912,3.23a26.7,26.7,0,0,1-1.938,2.5c-2.551,2.907-4.884,4.08-6.941,3.474" transform="translate(90.882 12.829)" fill="#333"/>
      <path id="Trazado_3051" data-name="Trazado 3051" d="M16.25,8.293l.211-.567c10.77,3.586,19.59,7.369,25.449,9.979,2.96,1.338,5.26,2.465,6.835,3.256.771.422,1.364.738,1.773.956s.626.349.646.349l-.277.567c-.026,0-.237-.125-.646-.343s-1-.547-1.786-.949c-1.549-.8-3.849-1.925-6.8-3.263A269.965,269.965,0,0,0,16.25,8.293" transform="translate(90.86 43.201)" fill="#333"/>
      <path id="Trazado_3052" data-name="Trazado 3052" d="M16.25,8.293l.211-.567a103.7,103.7,0,0,0,16,3.915,108.861,108.861,0,0,0,13.947,1.2c1.022.013,2.03.04,2.946.053h.718l.343-.013.178.007h.079c-.033.105.1-.231-.086.237l.02-.007h.053c.428.007.89,0,1.3,0,1.714-.046,3.177-.1,4.39-.125,1.246-.086,2.195-.132,2.861-.178s1.061-.086,1.081-.1l-.046.62-1.068.086c-.666.04-1.635.112-2.894.191-.6.02-1.279.04-2.017.059-.369.026-.751.026-1.14.04l-.613.013h-.323l-.138.007h-.02c-.026.046.171-.481.079-.25H52c-1.7.033-3.592.026-5.662-.026A105.849,105.849,0,0,1,32.32,12.235,104.064,104.064,0,0,1,16.25,8.293" transform="translate(90.86 43.201)" fill="#333"/>
    </g>
  </g>
</svg>
